<?xml version="1.0" encoding="utf-8"?>
<!-- Generator: Adobe Illustrator 26.0.3, SVG Export Plug-In . SVG Version: 6.00 Build 0)  -->
<svg version="1.1" id="Uploaded_to_svgrepo.com" xmlns="http://www.w3.org/2000/svg" xmlns:xlink="http://www.w3.org/1999/xlink"
	 x="0px" y="0px" viewBox="0 0 800 800" style="enable-background:new 0 0 800 800;" xml:space="preserve">
<style type="text/css">
	.st0{opacity:0.15;fill:url(#SVGID_1_);enable-background:new    ;}
	.st1{fill:url(#SVGID_00000175309672205099590320000013747701018385566642_);}
	
		.st2{opacity:0.15;fill-rule:evenodd;clip-rule:evenodd;fill:url(#SVGID_00000081608799371737395100000002716392087752604092_);enable-background:new    ;}
	.st3{fill:url(#SVGID_00000030472708405298018220000001972918914171486896_);}
</style>
<linearGradient id="SVGID_1_" gradientUnits="userSpaceOnUse" x1="30" y1="386" x2="776" y2="386">
	<stop  offset="0.2593" style="stop-color:#FFDB6E"/>
	<stop  offset="1" style="stop-color:#FFBC5E"/>
</linearGradient>
<rect x="30" y="105" class="st0" width="746" height="562"/>
<linearGradient id="SVGID_00000029038394964966627620000004302444078602286978_" gradientUnits="userSpaceOnUse" x1="0" y1="374.9969" x2="800" y2="374.9969">
	<stop  offset="0.2593" style="stop-color:#FFDB6E"/>
	<stop  offset="1" style="stop-color:#FFBC5E"/>
</linearGradient>
<path style="fill:url(#SVGID_00000029038394964966627620000004302444078602286978_);" d="M200,225H100v75h100V225z M175,275h-50v-25
	h50V275z M200,325H100v75h100V325z M175,375h-50v-25h50V375z M150,425c-41.4,0-75,33.6-75,75s33.6,75,75,75s75-33.6,75-75
	S191.4,425,150,425z M150,550c-27.6,0-50-22.4-50-50s22.4-50,50-50s50,22.4,50,50S177.6,550,150,550z M541.2,291.1l17.7,17.7l-50,50
	l-17.7-17.7L541.2,291.1z M775,100h-39.7l-42.7-42.7c-9.8-9.8-25.6-9.8-35.4,0L614.7,100H25c-13.8,0-25,11.2-25,25v550
	c0,13.8,11.2,25,25,25h750c13.8,0,25-11.2,25-25V125C800,111.2,788.8,100,775,100z M400,350v100h100l200-200v325H275V225h250
	L400,350z M425,367.7l57.3,57.3H425V367.7z M503.6,411L439,346.3l236-236l64.7,64.7L503.6,411z M50,650V150h550l-50,50H250v400h475
	V225l25-25v450H50z"/>
<linearGradient id="SVGID_00000039827720591588384490000011680066602544839860_" gradientUnits="userSpaceOnUse" x1="-198.3812" y1="490.5847" x2="-169.8071" y2="474.0609" gradientTransform="matrix(1 0 0 -1 9 802)">
	<stop  offset="0.2593" style="stop-color:#FFDB6E"/>
	<stop  offset="1" style="stop-color:#FFBC5E"/>
</linearGradient>
<path style="opacity:0.15;fill-rule:evenodd;clip-rule:evenodd;fill:url(#SVGID_00000039827720591588384490000011680066602544839860_);enable-background:new    ;" d="
	M-182.5,301c-1.1,0-2,0.9-2,2v34c0,1.1,0.9,2,2,2h15.9c1.1,0,2-0.9,2-2v-34c0-1.1-0.9-2-2-2h-3.2v1h-9.4v-1H-182.5z"/>
<linearGradient id="SVGID_00000009589778970783977960000000319712042147597453_" gradientUnits="userSpaceOnUse" x1="-199.2092" y1="491.1816" x2="-168.9722" y2="473.5089" gradientTransform="matrix(1 0 0 -1 9 802)">
	<stop  offset="0.2593" style="stop-color:#FFDB6E"/>
	<stop  offset="1" style="stop-color:#FFBC5E"/>
</linearGradient>
<path style="fill:url(#SVGID_00000009589778970783977960000000319712042147597453_);" d="M-177,335.7c-0.4,0-0.7,0.3-0.7,0.7
	s0.3,0.7,0.7,0.7V335.7z M-172,337c0.4,0,0.7-0.3,0.7-0.7s-0.3-0.7-0.7-0.7V337z M-185.1,329.4c0,0.4,0.3,0.7,0.7,0.7
	c0.4,0,0.7-0.3,0.7-0.7H-185.1z M-183.7,332.4c0-0.4-0.3-0.7-0.7-0.7c-0.4,0-0.7,0.3-0.7,0.7H-183.7z M-165.3,307.6
	c0,0.4,0.3,0.7,0.7,0.7c0.4,0,0.7-0.3,0.7-0.7H-165.3z M-163.9,310.6c0-0.4-0.3-0.7-0.7-0.7c-0.4,0-0.7,0.3-0.7,0.7H-163.9z
	 M-167,338.6h-15v1.4h15V338.6z M-182,301.4h3V300h-3V301.4z M-179.6,301.7h1.4v-1h-1.4V301.7z M-178,303.3h7V302h-7V303.3z
	 M-179,301.4h8.9V300h-8.9V301.4z M-170,301.4h3V300h-3V301.4z M-169.4,301.7v-1h-1.4v1H-169.4z M-177,337h5v-1.4h-5V337z
	 M-183.7,329.4v-26.3h-1.4v26.3H-183.7z M-183.7,336.9v-4.5h-1.4v4.5H-183.7z M-165.3,303.1v4.5h1.4v-4.5H-165.3z M-165.3,310.6
	v26.3h1.4v-26.3H-165.3z M-171,303.3c0.9,0,1.6-0.7,1.6-1.6h-1.4c0,0.2-0.1,0.3-0.3,0.3V303.3z M-182,338.6c-1,0-1.7-0.8-1.7-1.7
	h-1.4c0,1.7,1.4,3.1,3.1,3.1V338.6z M-167,340c1.7,0,3.1-1.4,3.1-3.1h-1.4c0,1-0.8,1.7-1.7,1.7V340z M-167,301.4
	c1,0,1.7,0.8,1.7,1.7h1.4c0-1.7-1.4-3.1-3.1-3.1V301.4z M-179.6,301.7c0,0.9,0.7,1.6,1.6,1.6V302c-0.2,0-0.3-0.1-0.3-0.3H-179.6z
	 M-182,300c-1.7,0-3.1,1.4-3.1,3.1h1.4c0-1,0.8-1.7,1.7-1.7V300z"/>
</svg>
